<svg width="39" height="40" viewBox="0 0 39 40" fill="none" xmlns="http://www.w3.org/2000/svg">
<path fill-rule="evenodd" clip-rule="evenodd" d="M19.5 39.5C30.269 39.5 39 30.769 39 20C39 9.23105 30.2712 0.5 19.5 0.5C8.73105 0.5 0 9.23105 0 20C0 30.769 8.73105 39.5 19.5 39.5ZM32.2308 23.386V22.1298C32.2308 22.0136 32.1186 21.9295 32.0084 21.9616L26.0762 23.6765C26.0442 23.6845 26.0161 23.7025 25.994 23.7266C25.3587 24.4284 24.8187 24.8994 24.6757 25.0242L24.6658 25.0328C24.2972 25.3454 23.8403 25.5157 23.3595 25.5157H21.2118V23.3259H22.9188C22.9628 23.3259 23.0049 23.3099 23.037 23.2818L23.2573 23.0795C23.3515 22.9933 23.4637 22.8891 23.5979 22.7549L23.6326 22.7203C23.7031 22.65 23.7785 22.5749 23.8524 22.4925C23.9405 22.4063 24.0267 22.3101 24.1068 22.216C24.241 22.0717 24.3693 21.9215 24.5035 21.7632C24.5997 21.659 24.6878 21.5408 24.774 21.4226C24.8701 21.3104 24.9643 21.1842 25.0524 21.064C25.0852 21.0158 25.1202 20.9671 25.1558 20.9173L25.1559 20.9173L25.1559 20.9171C25.1899 20.8697 25.2246 20.8213 25.2588 20.7715C25.3229 20.6753 25.387 20.5732 25.4411 20.477C25.6094 20.2165 25.7517 19.938 25.8719 19.6596C25.927 19.5403 25.9711 19.4148 26.014 19.2927L26.0301 19.2469C26.0782 19.1046 26.1183 18.9704 26.1483 18.8281C26.2204 18.4936 26.2365 18.161 26.2044 17.8284C26.1964 17.7242 26.1884 17.6221 26.1644 17.5259V17.5099C26.1563 17.4418 26.1403 17.3656 26.1183 17.2955C26.0461 16.971 25.9339 16.6464 25.7917 16.3278C25.7436 16.2096 25.6875 16.0894 25.6335 15.9793C25.5052 15.7409 25.371 15.5024 25.2187 15.272C25.1882 15.2234 25.1544 15.1741 25.1207 15.1249L25.1207 15.1248C25.0948 15.0869 25.0688 15.0491 25.0444 15.0116C24.9481 14.8629 24.8397 14.7196 24.7345 14.5805L24.7345 14.5805L24.7344 14.5804L24.6638 14.4867C24.6017 14.4052 24.5337 14.3236 24.4653 14.2416C24.4278 14.1966 24.3901 14.1514 24.3532 14.106C24.2491 13.9798 24.1469 13.8596 24.0427 13.7414C23.6701 13.3207 23.2794 12.94 22.9308 12.6155C22.8667 12.5514 22.7966 12.4872 22.7244 12.4252C22.454 12.1787 22.2075 11.9643 22.0012 11.7981C21.9392 11.7504 21.8836 11.7034 21.8318 11.6597C21.7966 11.6299 21.7632 11.6016 21.7307 11.5757C21.6682 11.5291 21.614 11.4878 21.5684 11.4531L21.5684 11.4531L21.5683 11.453L21.5672 11.4521C21.5388 11.4305 21.5138 11.4115 21.4923 11.3954C21.4763 11.3834 21.4583 11.3754 21.4402 11.3693L21.2118 11.3052V9.41397C21.2118 9.10544 21.0876 8.82897 20.8893 8.6266C20.6909 8.42426 20.4145 8.30005 20.11 8.30005C19.5009 8.30005 19.0081 8.7989 19.0081 9.41397V10.6881L18.8939 10.6561L18.5833 10.5679L18.3008 10.4898C18.3 10.4898 18.2992 10.4895 18.2982 10.4891L18.2977 10.4889C18.2964 10.4883 18.2949 10.4878 18.2928 10.4878H18.2868L16.1431 9.90681C16.049 9.88076 15.9688 9.98294 16.0169 10.0691L16.3595 10.7022C16.3789 10.7508 16.4036 10.7995 16.4289 10.8495L16.4289 10.8496C16.4453 10.8819 16.462 10.9148 16.4777 10.9486C16.5338 11.0608 16.5899 11.179 16.644 11.2972C16.6921 11.4014 16.7402 11.5035 16.7962 11.6158C16.8198 11.6685 16.8439 11.7219 16.8683 11.7761C16.9578 11.9749 17.052 12.184 17.1448 12.4091C17.225 12.5994 17.3051 12.7898 17.3752 12.9881C17.5676 13.487 17.7499 14.0199 17.9082 14.5668C17.9476 14.6893 17.979 14.8077 18.011 14.9278C18.0245 14.9787 18.0381 15.0298 18.0524 15.0817L18.0744 15.1779C18.1385 15.4323 18.1947 15.6847 18.2347 15.9392C18.2668 16.1135 18.2968 16.2798 18.3128 16.448C18.3369 16.6384 18.3609 16.8287 18.369 17.019C18.385 17.1933 18.393 17.3757 18.393 17.55C18.393 17.9947 18.3529 18.4234 18.2587 18.8281L18.241 18.8941L18.241 18.8941L18.241 18.8941C18.2146 18.9926 18.1873 19.0947 18.1546 19.1928C18.125 19.2978 18.0867 19.4029 18.0468 19.5119L18.0468 19.512L18.0468 19.512L18.0468 19.5122C18.0327 19.5507 18.0184 19.5898 18.0043 19.6295L17.9964 19.6508C17.9669 19.7301 17.9369 19.8109 17.9001 19.89C17.7018 20.3668 17.4554 20.8416 17.2009 21.2864C16.8283 21.9455 16.4537 22.5245 16.1912 22.8972C16.1751 22.9213 16.1595 22.9442 16.1444 22.9662L16.1442 22.9665C16.1255 22.9939 16.1076 23.0199 16.091 23.0454C16.0089 23.1616 16.093 23.3259 16.2353 23.3259H19.0081V25.5157H16.2032C15.4499 25.5157 14.7527 25.0889 14.4162 24.4057C14.2419 24.0631 14.1737 23.6865 14.2138 23.3179C14.2238 23.2077 14.1417 23.1035 14.0295 23.1035H8.36374C8.26757 23.1035 8.18945 23.1816 8.18945 23.2778V23.394C8.18945 27.0082 11.1085 29.9373 14.7106 29.9373H24.8741C26.7793 29.9373 27.8611 28.2012 28.9243 26.4948C29.2207 26.0191 29.5157 25.5458 29.8267 25.113C30.3856 24.3356 31.7299 23.7185 32.1226 23.5503C32.1867 23.5222 32.2308 23.4581 32.2308 23.386ZM9.70422 20.5228L9.62009 20.655C9.54595 20.7692 9.62809 20.9215 9.76833 20.9215H14.9853C15.0434 20.9215 15.0975 20.8934 15.1295 20.8454C15.1977 20.7412 15.2618 20.633 15.3199 20.5228C15.7707 19.7655 16.1714 18.9461 16.3176 18.341C16.6602 16.8705 15.9289 14.5084 15.0815 12.6092C15.0254 12.483 14.8511 12.471 14.7769 12.5871L9.70422 20.5228Z" fill="black"/>
</svg>
