<svg width="40" height="34" viewBox="0 0 40 34" fill="none" xmlns="http://www.w3.org/2000/svg">
<path d="M39.3512 4.78345C37.9002 5.42555 36.3492 5.85917 34.7148 6.0593C36.3826 5.05864 37.6667 3.47425 38.2671 1.58966C36.7078 2.51527 34.9816 3.19072 33.1387 3.5493C31.6627 1.97325 29.5613 0.989258 27.2431 0.989258C22.7818 0.989258 19.1711 4.60834 19.1711 9.06964C19.1711 9.7034 19.2378 10.3205 19.3796 10.9125C12.6668 10.579 6.7128 7.36017 2.73515 2.46524C2.04303 3.6577 1.64276 5.0503 1.64276 6.52628C1.64276 9.32815 3.06871 11.8048 5.23682 13.2558C3.91094 13.2224 2.6601 12.8555 1.57605 12.2468C1.57605 12.2801 1.57605 12.3135 1.57605 12.3468C1.57605 16.2661 4.36124 19.5266 8.05536 20.2688C7.37991 20.4522 6.66277 20.5523 5.92895 20.5523C5.41194 20.5523 4.90326 20.5023 4.41127 20.4022C5.43695 23.6127 8.42227 25.9476 11.958 26.0143C9.19779 28.1824 5.71214 29.4749 1.92628 29.4749C1.27585 29.4749 0.633755 29.4332 0 29.3582C3.56904 31.6764 7.81353 33.0106 12.3666 33.0106C27.2265 33.0106 35.3485 20.6941 35.3485 10.0119C35.3485 9.66171 35.3402 9.31147 35.3235 8.96958C36.8996 7.82715 38.2671 6.4012 39.3512 4.78345Z" fill="black"/>
</svg>
